<svg width="47" height="47" viewBox="0 0 47 47" fill="none" xmlns="http://www.w3.org/2000/svg">
<path d="M42.4102 0H8.99609C6.46525 0 4.40625 2.059 4.40625 4.58984V4.95703H3.12109C1.40009 4.95703 0 6.35712 0 8.07812C0 9.79913 1.40009 11.1992 3.12109 11.1992H4.40625V20.3789H3.12109C1.40009 20.3789 0 21.779 0 23.5C0 25.221 1.40009 26.6211 3.12109 26.6211H4.40625V35.8008H3.12109C1.40009 35.8008 0 37.2009 0 38.9219C0 40.6429 1.40009 42.043 3.12109 42.043H4.40625V42.4102C4.40625 44.941 6.46525 47 8.99609 47H42.4102C44.941 47 47 44.941 47 42.4102V4.58984C47 2.059 44.941 0 42.4102 0ZM1.83594 8.07812C1.83594 7.36945 2.41242 6.79297 3.12109 6.79297H7.52734C8.23602 6.79297 8.8125 7.36945 8.8125 8.07812C8.8125 8.7868 8.23602 9.36328 7.52734 9.36328H3.12109C2.41242 9.36328 1.83594 8.7868 1.83594 8.07812ZM1.83594 23.5C1.83594 22.7913 2.41242 22.2148 3.12109 22.2148H7.52734C8.23602 22.2148 8.8125 22.7913 8.8125 23.5C8.8125 24.2087 8.23602 24.7852 7.52734 24.7852H3.12109C2.41242 24.7852 1.83594 24.2087 1.83594 23.5ZM1.83594 38.9219C1.83594 38.2132 2.41242 37.6367 3.12109 37.6367H7.52734C8.23602 37.6367 8.8125 38.2132 8.8125 38.9219C8.8125 39.6305 8.23602 40.207 7.52734 40.207H3.12109C2.41242 40.207 1.83594 39.6305 1.83594 38.9219ZM45.1641 42.4102C45.1641 43.9287 43.9287 45.1641 42.4102 45.1641H41.1225C41.7001 44.3965 42.043 43.4426 42.043 42.4102V27.6309C42.043 27.1239 41.632 26.7129 41.125 26.7129C40.618 26.7129 40.207 27.1239 40.207 27.6309V42.4102C40.207 43.9287 38.9716 45.1641 37.4531 45.1641H8.99609C7.47759 45.1641 6.24219 43.9287 6.24219 42.4102V42.043H7.52734C9.24835 42.043 10.6484 40.6429 10.6484 38.9219C10.6484 37.2009 9.24835 35.8008 7.52734 35.8008H6.24219V26.6211H7.52734C9.24835 26.6211 10.6484 25.221 10.6484 23.5C10.6484 21.779 9.24835 20.3789 7.52734 20.3789H6.24219V11.1992H7.52734C9.24835 11.1992 10.6484 9.79913 10.6484 8.07812C10.6484 6.35712 9.24835 4.95703 7.52734 4.95703H6.24219V4.58984C6.24219 3.07134 7.47759 1.83594 8.99609 1.83594H37.4531C38.9716 1.83594 40.207 3.07134 40.207 4.58984V19.3691C40.207 19.8761 40.618 20.2871 41.125 20.2871C41.632 20.2871 42.043 19.8761 42.043 19.3691V4.58984C42.043 3.5574 41.7001 2.60354 41.1225 1.83594H42.4102C43.9287 1.83594 45.1641 3.07134 45.1641 4.58984V42.4102Z" fill="#8D5DC6"/>
<path d="M26.4617 22.5355C27.2957 21.704 27.8125 20.5547 27.8125 19.2868V17.7979C27.8125 15.267 25.7535 13.208 23.2227 13.208C20.6918 13.208 18.6328 15.267 18.6328 17.7979V19.2868C18.6328 20.5547 19.1496 21.704 19.9836 22.5355C15.5881 23.9158 12.3906 28.028 12.3906 32.874C12.3906 33.381 12.8016 33.792 13.3086 33.792H33.1367C33.6437 33.792 34.0547 33.3797 34.0547 32.8727C34.0547 28.0278 30.8572 23.9157 26.4617 22.5355ZM20.4688 19.2868V17.7979C20.4688 16.2793 21.7042 15.0439 23.2227 15.0439C24.7412 15.0439 25.9766 16.2793 25.9766 17.7979V19.2868C25.9766 20.8053 24.7412 22.0407 23.2227 22.0407C21.7042 22.0407 20.4688 20.8053 20.4688 19.2868ZM14.2729 31.9561C14.703 27.7265 18.0754 24.3551 22.3047 23.9243V27.2318C22.3047 27.7388 22.7157 28.1498 23.2227 28.1498C23.7297 28.1498 24.1406 27.7388 24.1406 27.2318V23.9243C28.3696 24.355 31.7419 27.726 32.1723 31.9561H14.2729Z" fill="#8D5DC6"/>
<path d="M29.1798 37.0967H17.2695C16.7625 37.0967 16.3516 37.5077 16.3516 38.0146C16.3516 38.5216 16.7625 38.9326 17.2695 38.9326H29.1798C29.6868 38.9326 30.0978 38.5216 30.0978 38.0146C30.0978 37.5077 29.6868 37.0967 29.1798 37.0967Z" fill="#8D5DC6"/>
<path d="M41.125 22.582C40.8836 22.582 40.6467 22.6803 40.476 22.851C40.3053 23.0217 40.207 23.2586 40.207 23.5C40.207 23.7414 40.3053 23.9783 40.476 24.149C40.6467 24.3197 40.8836 24.418 41.125 24.418C41.3664 24.418 41.6033 24.3197 41.774 24.149C41.9447 23.9783 42.043 23.7414 42.043 23.5C42.043 23.2586 41.9447 23.0217 41.774 22.851C41.6033 22.6803 41.3664 22.582 41.125 22.582Z" fill="#8D5DC6"/>
</svg>
