<svg width="53" height="53" viewBox="0 0 53 53" fill="none" xmlns="http://www.w3.org/2000/svg">
<g clip-path="url(#clip0_4857_328)">
<path d="M52.9959 2.85076C52.999 2.36022 52.8746 1.87713 52.6334 1.44693C52.2629 0.786116 51.6576 0.309962 50.9291 0.105836C50.2018 -0.0979783 49.4385 -0.00554224 48.7784 0.366893L1.48803 27.186C0.799367 27.5577 0.291227 28.2043 0.0927952 28.9623C-0.30262 30.4733 0.60228 32.0255 2.11045 32.4225L16.345 36.1645L21.6873 51.1809C21.6919 51.1937 21.6966 51.2062 21.7017 51.2187C21.9836 51.9227 22.5223 52.4742 23.2188 52.7716C23.5754 52.9239 23.9513 53 24.3276 53C24.6847 53 25.042 52.9314 25.3832 52.794C25.7664 52.6397 26.1142 52.4031 26.391 52.1084L34.1906 44.5457L46.6289 51.4813C47.0386 51.7352 47.5093 51.8806 47.9921 51.9021C48.7492 51.9355 49.4726 51.6722 50.0308 51.1599C50.5882 50.6485 50.9136 49.9501 50.9472 49.1935L52.9968 2.96048C52.9985 2.92363 52.9982 2.88699 52.9959 2.85076ZM18.3438 35.6063L41.1272 14.9928L27.0737 39.3754C27.037 39.439 27.0072 39.5064 26.9848 39.5761L23.5581 50.2627L18.3438 35.6063ZM25.9178 49.6837L28.5702 41.412L32.3025 43.493L25.9178 49.6837ZM50.9246 2.95717L48.879 49.1019C48.8699 49.3071 48.7819 49.4964 48.631 49.6347C48.4811 49.7722 48.2864 49.8426 48.0844 49.8339C47.9498 49.8279 47.8246 49.7886 47.7121 49.717C47.6952 49.7062 47.6779 49.6958 47.6603 49.686L29.3916 39.4994L32.1624 34.6922L39.9188 39.0172C40.0785 39.1061 40.2514 39.1484 40.422 39.1484C40.7851 39.1484 41.1376 38.9569 41.327 38.6172C41.6054 38.1178 41.4263 37.4875 40.9271 37.209L33.1964 32.8985L35.5221 28.8634L44.8422 34.0603C45.0018 34.1492 45.1748 34.1915 45.3453 34.1915C45.7085 34.1915 46.0609 34 46.2504 33.6603C46.5287 33.1611 46.3496 32.5306 45.8504 32.2521L36.556 27.0696L38.1758 24.2593L45.3422 28.2552C45.5019 28.3442 45.6748 28.3865 45.8454 28.3865C46.2085 28.3865 46.561 28.1949 46.7504 27.8553C47.0288 27.3559 46.8497 26.7254 46.3505 26.4471L39.2098 22.4655L44.2236 13.7668C44.2548 13.7127 44.281 13.6558 44.302 13.5969C44.5432 12.9191 44.2918 12.1563 43.6905 11.7418C43.1466 11.3667 42.2395 11.2435 41.3261 12.0219C41.3183 12.0285 41.3107 12.0354 41.303 12.0422L31.9959 20.463L26.228 18.9467C25.675 18.8009 25.109 19.1317 24.9636 19.6846C24.8183 20.2375 25.1486 20.8036 25.7015 20.949L30.1626 22.1218L27.9193 24.1513L21.0501 22.3455C20.4979 22.2005 19.9312 22.5306 19.7858 23.0836C19.6406 23.6364 19.9709 24.2025 20.5238 24.3479L26.0861 25.8101L22.8645 28.7249L14.6295 26.5599C14.0764 26.4151 13.5105 26.745 13.3651 27.2979C13.2198 27.8508 13.5502 28.4169 14.103 28.5623L21.0311 30.3835L16.858 34.1591L2.63711 30.4203C2.23166 30.3137 1.98872 29.8947 2.09554 29.4865C2.1502 29.2776 2.28486 29.107 2.47481 29.0058C2.48288 29.0015 2.49085 28.9971 2.49872 28.9926L49.7977 2.16893C49.9732 2.06977 50.1767 2.04492 50.3708 2.09947C50.566 2.15402 50.7281 2.28196 50.8276 2.45949C50.8978 2.58453 50.9314 2.72562 50.9249 2.86763C50.9236 2.89776 50.9235 2.92767 50.9246 2.95717Z" fill="#8D5DC6"/>
<path d="M44.4926 39.3467H44.4918C43.9202 39.3467 43.457 39.8102 43.457 40.3818C43.457 40.9534 43.9209 41.417 44.4926 41.417C45.0643 41.417 45.5278 40.9534 45.5278 40.3818C45.5278 39.8102 45.0642 39.3467 44.4926 39.3467Z" fill="#8D5DC6"/>
</g>
<defs>
<clipPath id="clip0_4857_328">
<rect width="53" height="53" fill="white"/>
</clipPath>
</defs>
</svg>
