<svg width="53" height="53" viewBox="0 0 53 53" fill="none" xmlns="http://www.w3.org/2000/svg">
<path d="M47.8242 4.14062H31.1721C30.6005 4.14062 30.1369 4.60406 30.1369 5.17578C30.1369 5.7475 30.6005 6.21094 31.1721 6.21094H47.8242C49.5366 6.21094 50.9297 7.60405 50.9297 9.31641V34.3672H2.07031V9.31641C2.07031 7.60405 3.46343 6.21094 5.17578 6.21094H21.8557C22.4273 6.21094 22.8908 5.7475 22.8908 5.17578C22.8908 4.60406 22.4273 4.14062 21.8557 4.14062H5.17578C2.32186 4.14062 0 6.46248 0 9.31641V43.6836C0 46.5375 2.32186 48.8594 5.17578 48.8594H47.8242C50.6781 48.8594 53 46.5375 53 43.6836V9.31641C53 6.46248 50.6781 4.14062 47.8242 4.14062ZM47.8242 46.7891H5.17578C3.46343 46.7891 2.07031 45.396 2.07031 43.6836V36.4375H50.9297V43.6836C50.9297 45.396 49.5366 46.7891 47.8242 46.7891Z" fill="#8D5DC6"/>
<path d="M10.3438 38.5078C8.63139 38.5078 7.23828 39.9009 7.23828 41.6133C7.23828 43.3256 8.63139 44.7188 10.3438 44.7188C12.0561 44.7188 13.4492 43.3256 13.4492 41.6133C13.4492 39.9009 12.0561 38.5078 10.3438 38.5078ZM10.3438 42.6484C9.77296 42.6484 9.30859 42.1841 9.30859 41.6133C9.30859 41.0425 9.77296 40.5781 10.3438 40.5781C10.9145 40.5781 11.3789 41.0425 11.3789 41.6133C11.3789 42.1841 10.9144 42.6484 10.3438 42.6484Z" fill="#8D5DC6"/>
<path d="M44.7257 40.5781H18.9414C18.3697 40.5781 17.9062 41.0416 17.9062 41.6133C17.9062 42.185 18.3697 42.6484 18.9414 42.6484H44.7257C45.2973 42.6484 45.7608 42.185 45.7608 41.6133C45.7608 41.0416 45.2974 40.5781 44.7257 40.5781Z" fill="#8D5DC6"/>
<path d="M21.207 17.1503V23.4281C21.207 24.4955 21.7589 25.4512 22.6832 25.9848C23.1454 26.2517 23.6524 26.3851 24.1594 26.3851C24.6663 26.3851 25.1733 26.2517 25.6355 25.9848L31.0722 22.8459C31.9965 22.3123 32.5483 21.3565 32.5483 20.2892C32.5483 19.222 31.9965 18.2661 31.0722 17.7325L25.6355 14.5936C24.7113 14.06 23.6078 14.06 22.6833 14.5936C21.7589 15.1272 21.207 16.0831 21.207 17.1503ZM23.2773 17.1503C23.2773 16.6907 23.5858 16.4631 23.7183 16.3865C23.799 16.34 23.9602 16.2651 24.1639 16.2651C24.2952 16.2651 24.4443 16.2964 24.6004 16.3865L30.037 19.5254C30.435 19.7552 30.478 20.1361 30.478 20.2892C30.478 20.4423 30.435 20.8232 30.037 21.0531L24.6004 24.192C24.2023 24.4216 23.851 24.2685 23.7184 24.192C23.5859 24.1154 23.2774 23.8877 23.2774 23.4281V17.1503H23.2773Z" fill="#8D5DC6"/>
<path d="M26.5117 6.21094C26.784 6.21094 27.051 6.10018 27.2436 5.90764C27.436 5.7151 27.5469 5.44803 27.5469 5.17578C27.5469 4.90354 27.4361 4.63646 27.2436 4.44393C27.051 4.25139 26.784 4.14062 26.5117 4.14062C26.2395 4.14062 25.9724 4.25139 25.7788 4.44393C25.5863 4.63646 25.4766 4.90354 25.4766 5.17578C25.4766 5.44803 25.5863 5.7151 25.7788 5.90764C25.9724 6.10018 26.2395 6.21094 26.5117 6.21094Z" fill="#8D5DC6"/>
</svg>
