<svg width="53" height="53" viewBox="0 0 53 53" fill="none" xmlns="http://www.w3.org/2000/svg">
<path d="M50.207 8.31572C50.207 6.58432 48.7985 5.17578 47.0671 5.17578H44.6172V1.03516C44.6172 0.463543 44.1536 0 43.582 0H9.62891C5.86166 0 2.79688 3.06479 2.79688 6.83203V49.0664C2.79688 51.2354 4.56151 53 6.73047 53H43.582C44.1536 53 44.6172 52.5365 44.6172 51.9648V42.0273H47.0671C48.7985 42.0273 50.207 40.6188 50.207 38.8874V31.5032C50.207 30.6941 49.8993 29.9558 49.395 29.3984C49.8993 28.8411 50.207 28.1027 50.207 27.2937V19.9095C50.207 19.1004 49.8993 18.362 49.395 17.8047C49.8993 17.2474 50.207 16.509 50.207 15.6999V8.31572ZM47.0671 7.24609C47.6568 7.24609 48.1367 7.72599 48.1367 8.31572V15.6999C48.1367 16.2896 47.6568 16.7695 47.0671 16.7695H44.6172V7.24609H47.0671ZM48.1367 19.9095V27.2937C48.1367 27.8834 47.6568 28.3633 47.0671 28.3633H44.6172V18.8398H47.0671C47.6568 18.8398 48.1367 19.3197 48.1367 19.9095ZM8.59375 2.18501V45.1328H6.73047C6.05669 45.1328 5.42213 45.3033 4.86719 45.6031V6.83203C4.86719 4.56193 6.46443 2.65911 8.59375 2.18501ZM42.5469 50.9297H6.73047C5.70308 50.9297 4.86719 50.0938 4.86719 49.0664C4.86719 48.039 5.70308 47.2031 6.73047 47.2031H21.9473C22.5189 47.2031 22.9824 46.7396 22.9824 46.168C22.9824 45.5964 22.5189 45.1328 21.9473 45.1328H10.6641V2.07031H42.5469V45.1328H31.2638C30.6922 45.1328 30.2286 45.5964 30.2286 46.168C30.2286 46.7396 30.6922 47.2031 31.2638 47.2031H42.5469V50.9297ZM48.1367 38.8874C48.1367 39.4771 47.6568 39.957 47.0671 39.957H44.6172V30.4336H47.0671C47.6568 30.4336 48.1367 30.9135 48.1367 31.5032V38.8874Z" fill="#8D5DC6"/>
<path d="M34.3672 30.2654C37.2211 30.2654 39.543 27.9435 39.543 25.0896C39.543 24.518 39.0794 24.0544 38.5078 24.0544H37.3849L35.8311 17.4249C35.8308 17.4233 35.8304 17.4216 35.83 17.4201L35.3539 15.3891C34.8247 13.1314 32.8356 11.5547 30.5167 11.5547H29.5583C29.6732 11.2307 29.7363 10.8825 29.7363 10.5195C29.7363 8.80718 28.3432 7.41406 26.6308 7.41406C24.9185 7.41406 23.5254 8.80718 23.5254 10.5195C23.5254 10.8825 23.5885 11.2307 23.7034 11.5547H22.6901C20.3714 11.5547 18.3822 13.1314 17.8529 15.3891L17.4344 17.1749C17.4339 17.1772 17.4333 17.1797 17.4327 17.1822L15.8219 24.0544H14.6992C14.1276 24.0544 13.6641 24.518 13.6641 25.0896C13.6641 27.9435 15.9859 30.2654 18.8398 30.2654H34.3672ZM25.5958 10.5195C25.5958 9.94875 26.0602 9.48438 26.6309 9.48438C27.2017 9.48438 27.6661 9.94875 27.6661 10.5195C27.6661 11.0903 27.2017 11.5547 26.6309 11.5547C26.0602 11.5547 25.5958 11.0903 25.5958 10.5195ZM22.6902 13.625H30.5167C31.8693 13.625 33.0295 14.5447 33.3381 15.8616L33.6181 17.0564C33.5764 17.0792 33.5341 17.1011 33.493 17.1249C32.4268 17.7431 31.102 17.7431 30.0359 17.1249C28.3292 16.1356 26.2088 16.1356 24.5019 17.1249C23.4358 17.743 22.1109 17.743 21.0449 17.1249C20.6242 16.881 20.1715 16.6963 19.7026 16.5709L19.8689 15.8616C20.1775 14.5447 21.3377 13.625 22.6902 13.625ZM19.2303 18.5859C19.501 18.6637 19.7623 18.7745 20.0065 18.9161C20.86 19.4108 21.8164 19.6582 22.7733 19.6582C23.73 19.6581 24.6869 19.4107 25.5402 18.9161C26.6062 18.2979 27.931 18.2979 28.9973 18.9161C30.5652 19.825 32.4808 19.8964 34.1054 19.1358L35.2582 24.0544H17.9487L19.2303 18.5859ZM15.9118 26.1247H37.2952C36.868 27.3298 35.7167 28.195 34.3672 28.195H18.8398C17.4903 28.195 16.339 27.3298 15.9118 26.1247Z" fill="#8D5DC6"/>
<path d="M36.4713 34.1992C36.4713 33.6276 36.0077 33.1641 35.4361 33.1641H17.7695C17.1979 33.1641 16.7344 33.6276 16.7344 34.1992C16.7344 34.7708 17.1979 35.2344 17.7695 35.2344H35.4361C36.0077 35.2344 36.4713 34.7708 36.4713 34.1992Z" fill="#8D5DC6"/>
<path d="M31.2955 38.3398C31.2955 37.7682 30.832 37.3047 30.2603 37.3047H22.9453C22.3737 37.3047 21.9102 37.7682 21.9102 38.3398C21.9102 38.9115 22.3737 39.375 22.9453 39.375H30.2603C30.832 39.375 31.2955 38.9115 31.2955 38.3398Z" fill="#8D5DC6"/>
<path d="M26.6055 45.1328C26.3332 45.1328 26.0662 45.2435 25.8736 45.4361C25.6811 45.6288 25.5703 45.8957 25.5703 46.168C25.5703 46.4402 25.681 46.7073 25.8736 46.8997C26.0662 47.0923 26.3332 47.2031 26.6055 47.2031C26.8777 47.2031 27.1448 47.0924 27.3372 46.8997C27.5299 46.7073 27.6406 46.4402 27.6406 46.168C27.6406 45.8957 27.5299 45.6287 27.3372 45.4361C27.1448 45.2435 26.8777 45.1328 26.6055 45.1328Z" fill="#8D5DC6"/>
</svg>
