<svg width="61" height="61" viewBox="0 0 61 61" fill="none" xmlns="http://www.w3.org/2000/svg">
<g clip-path="url(#clip0_4856_231)">
<path d="M25.8403 18.5954C27.443 18.5013 29.0362 18.2846 30.6059 17.9473C31.6316 17.1994 32.4666 16.2201 33.0429 15.089C33.6192 13.9579 33.9206 12.7069 33.9227 11.4374C33.9227 7.11024 29.6718 2.8593 25.3446 2.8593C23.019 2.8593 17.2335 0.838675 15.1939 0.0666444C15.0609 0.0158665 14.9183 -0.00449709 14.7764 0.0070481C14.6346 0.0185933 14.4971 0.0617543 14.3742 0.133363C14.2514 0.206187 14.1465 0.305661 14.0673 0.42444C13.9882 0.543218 13.9367 0.678267 13.9167 0.819613C13.8595 1.21993 12.5537 10.7893 17.8626 15.7551C20.0497 17.7059 22.9124 18.7251 25.8403 18.5954ZM15.699 2.27789C17.9674 3.09758 22.876 4.76555 25.3446 4.76555C27.0711 4.89526 28.6938 5.63984 29.918 6.86407C31.1422 8.08829 31.8868 9.71097 32.0165 11.4374C32.0196 12.2539 31.8602 13.0629 31.5476 13.8172C31.2351 14.5716 30.7757 15.2562 30.196 15.8313L22.2374 6.98633C22.0681 6.79801 21.8308 6.68467 21.5779 6.67127C21.325 6.65786 21.0771 6.74548 20.8888 6.91485C20.7004 7.08421 20.5871 7.32145 20.5737 7.57438C20.5603 7.8273 20.6479 8.07519 20.8173 8.26352L28.2421 16.508C24.3153 17.0323 21.2653 16.327 19.1684 14.3635C15.5942 11.0276 15.537 4.86086 15.699 2.27789Z" fill="#8D5DC6"/>
<path d="M33.0463 23.666C33.6468 26.2299 35.4482 27.8216 37.7357 27.8216C41.8627 27.8216 46.3138 25.7343 46.3138 21.1497C46.4359 18.6504 46.7546 16.1646 47.267 13.7154C47.3136 13.4861 47.2742 13.2478 47.1565 13.0457C47.0387 12.8435 46.8508 12.6918 46.6284 12.6193C46.3043 12.5144 43.2257 11.6662 37.3259 14.5827C35.7008 15.4016 34.3966 16.7408 33.621 18.387C32.8454 20.0331 32.6431 21.8915 33.0463 23.666ZM38.1265 16.2888C40.2161 15.1046 42.5524 14.4227 44.9509 14.2968H45.1796C44.7469 16.5451 44.4888 18.8235 44.4076 21.1116C44.4076 24.3904 40.9477 25.8772 37.7357 25.8772C37.5073 25.8794 37.2797 25.8505 37.059 25.7915L41.3671 19.7582C41.5128 19.5531 41.5715 19.2988 41.5304 19.0506C41.4894 18.8024 41.3519 18.5805 41.1479 18.4333C41.046 18.3597 40.9306 18.307 40.8083 18.2781C40.6859 18.2493 40.5591 18.245 40.4351 18.2653C40.3111 18.2857 40.1923 18.3304 40.0856 18.3969C39.979 18.4633 39.8865 18.5502 39.8135 18.6526L35.534 24.6572C35.2409 24.207 35.025 23.7109 34.8954 23.1894C34.5983 21.8439 34.7541 20.438 35.3384 19.1901C35.9227 17.9422 36.9028 16.9223 38.1265 16.2888Z" fill="#8D5DC6"/>
<path d="M51.4688 38.1249C51.4688 35.9137 48.2281 34.4554 41.1273 33.4165C41.0022 33.3977 40.8745 33.4038 40.7517 33.4343C40.6289 33.4649 40.5133 33.5193 40.4115 33.5946C40.3097 33.6698 40.2238 33.7643 40.1585 33.8728C40.0933 33.9812 40.05 34.1015 40.0312 34.2267C40.0125 34.3518 40.0185 34.4795 40.0491 34.6023C40.0796 34.7251 40.1341 34.8407 40.2093 34.9425C40.2846 35.0443 40.3791 35.1302 40.4875 35.1955C40.596 35.2607 40.7162 35.304 40.8414 35.3228C49.4195 36.5904 49.5625 38.1821 49.5625 38.1821C49.5625 39.4784 42.8144 41.9946 30.5 41.9946C18.1856 41.9946 11.4375 39.4784 11.4375 38.1821C11.4375 36.8859 18.1666 34.3696 30.5 34.3696C30.7528 34.3696 30.9952 34.2692 31.174 34.0905C31.3527 33.9117 31.4531 33.6693 31.4531 33.4165C31.4531 33.1637 31.3527 32.9213 31.174 32.7425C30.9952 32.5638 30.7528 32.4634 30.5 32.4634C20.435 32.4634 9.61703 34.2457 9.53125 38.1821V38.2393C9.53125 39.4117 10.2652 60.9999 30.5 60.9999C50.7348 60.9999 51.4688 39.4117 51.4688 38.1821V38.1249ZM30.5 43.8437C37.8867 43.8437 45.6833 42.8906 49.3433 40.8318C49.248 41.499 49.1241 42.271 48.9525 43.0907C48.1709 43.491 43.2337 45.7499 30.5 45.7499C17.7663 45.7499 12.8481 43.491 12.0475 43.0907C11.8759 42.271 11.752 41.499 11.6567 40.8318C15.3167 42.8906 23.1133 43.8437 30.5 43.8437ZM30.5 59.0937C22.6272 59.0937 17.0323 55.6148 13.8775 48.7428C13.3859 47.6572 12.9687 46.5395 12.6289 45.3973C15.107 46.2837 20.5398 47.6562 30.5 47.6562C40.4602 47.6562 45.893 46.2837 48.3711 45.3973C48.0313 46.5395 47.6141 47.6572 47.1225 48.7428C43.9677 55.6148 38.3728 59.0937 30.5 59.0937Z" fill="#8D5DC6"/>
<path d="M55.2831 20.9688C52.1283 20.9688 49.5644 24.3905 49.5644 28.5938C49.5181 29.8397 49.7509 31.0802 50.2456 32.2246C50.7403 33.3691 51.4845 34.3885 52.4237 35.2084V58.1406C52.4237 58.899 52.725 59.6263 53.2612 60.1625C53.7975 60.6987 54.5247 61 55.2831 61C56.0414 61 56.7687 60.6987 57.305 60.1625C57.8412 59.6263 58.1425 58.899 58.1425 58.1406V35.2084C59.0817 34.3885 59.8259 33.3691 60.3206 32.2246C60.8153 31.0802 61.0481 29.8397 61.0018 28.5938C61.0018 24.3905 58.4379 20.9688 55.2831 20.9688ZM56.6937 33.8931C56.5546 33.9778 56.4395 34.0968 56.3594 34.2386C56.2793 34.3804 56.2369 34.5404 56.2362 34.7033V58.1406C56.2362 58.3934 56.1358 58.6358 55.9571 58.8146C55.7783 58.9933 55.5359 59.0938 55.2831 59.0938C55.0303 59.0938 54.7879 58.9933 54.6091 58.8146C54.4304 58.6358 54.33 58.3934 54.33 58.1406V34.7033C54.3293 34.5404 54.2869 34.3804 54.2068 34.2386C54.1267 34.0968 54.0116 33.9778 53.8725 33.8931C52.4237 32.9972 51.4706 30.9194 51.4706 28.5938C51.4706 25.4961 53.2148 22.875 55.2831 22.875C57.3514 22.875 59.0956 25.4961 59.0956 28.5938C59.0956 30.9194 58.1425 32.9972 56.6937 33.8931Z" fill="#8D5DC6"/>
<path d="M11.4375 31.4531V21.9219C11.4375 21.6691 11.3371 21.4267 11.1583 21.2479C10.9796 21.0692 10.7372 20.9688 10.4844 20.9688C10.2316 20.9688 9.98916 21.0692 9.81041 21.2479C9.63167 21.4267 9.53125 21.6691 9.53125 21.9219V27.6406H6.67188V21.9219C6.67188 21.6691 6.57146 21.4267 6.39271 21.2479C6.21397 21.0692 5.97153 20.9688 5.71875 20.9688C5.46597 20.9688 5.22353 21.0692 5.04479 21.2479C4.86604 21.4267 4.76562 21.6691 4.76562 21.9219V27.6406H1.90625V21.9219C1.90625 21.6691 1.80583 21.4267 1.62709 21.2479C1.44834 21.0692 1.20591 20.9688 0.953125 20.9688C0.700341 20.9688 0.457909 21.0692 0.279164 21.2479C0.100418 21.4267 0 21.6691 0 21.9219L0 31.4531C0.00063009 32.2979 0.281787 33.1185 0.799324 33.7861C1.31686 34.4537 2.04147 34.9305 2.85938 35.1417V58.1406C2.85938 58.899 3.16063 59.6263 3.69687 60.1625C4.2331 60.6987 4.9604 61 5.71875 61C6.4771 61 7.2044 60.6987 7.74063 60.1625C8.27687 59.6263 8.57812 58.899 8.57812 58.1406V35.1417C9.39603 34.9305 10.1206 34.4537 10.6382 33.7861C11.1557 33.1185 11.4369 32.2979 11.4375 31.4531ZM9.53125 31.4531C9.53125 31.9587 9.33041 32.4436 8.97292 32.8011C8.61543 33.1585 8.13057 33.3594 7.625 33.3594C7.37222 33.3594 7.12978 33.4598 6.95104 33.6385C6.77229 33.8173 6.67188 34.0597 6.67188 34.3125V58.1406C6.67188 58.3934 6.57146 58.6358 6.39271 58.8146C6.21397 58.9933 5.97153 59.0938 5.71875 59.0938C5.46597 59.0938 5.22353 58.9933 5.04479 58.8146C4.86604 58.6358 4.76562 58.3934 4.76562 58.1406V34.3125C4.76562 34.0597 4.66521 33.8173 4.48646 33.6385C4.30772 33.4598 4.06528 33.3594 3.8125 33.3594C3.30693 33.3594 2.82207 33.1585 2.46458 32.8011C2.10709 32.4436 1.90625 31.9587 1.90625 31.4531V29.5469H9.53125V31.4531Z" fill="#8D5DC6"/>
<path d="M27.4125 22.8748L23.6 23.8279C23.4771 23.8549 23.3607 23.906 23.2576 23.9783C23.1546 24.0505 23.0668 24.1425 22.9995 24.2488C22.9321 24.3551 22.8865 24.4738 22.8652 24.5978C22.844 24.7219 22.8475 24.8489 22.8756 24.9716L23.8288 29.7373C23.8603 29.886 23.9269 30.025 24.023 30.1427C24.1192 30.2604 24.2421 30.3534 24.3816 30.414C24.5061 30.4745 24.6435 30.5039 24.7819 30.4998C24.953 30.4997 25.1209 30.4536 25.268 30.3663L30.0336 27.507C30.1441 27.4408 30.24 27.3529 30.3156 27.2486C30.3912 27.1443 30.4449 27.0258 30.4734 26.9002C30.5019 26.7746 30.5046 26.6445 30.4815 26.5178C30.4583 26.3911 30.4097 26.2704 30.3386 26.163L28.4324 23.3037C28.3281 23.135 28.1738 23.003 27.991 22.9261C27.8082 22.8492 27.606 22.8313 27.4125 22.8748ZM25.4491 28.0312L24.9439 25.4863L27.2219 24.9145L28.175 26.3823L25.4491 28.0312Z" fill="#8D5DC6"/>
<path d="M24.7812 38.125C24.7812 38.6905 24.9489 39.2434 25.2631 39.7136C25.5773 40.1838 26.0239 40.5503 26.5464 40.7667C27.0689 40.9831 27.6438 41.0398 28.1985 40.9294C28.7531 40.8191 29.2626 40.5468 29.6625 40.1469C30.0624 39.747 30.3347 39.2375 30.4451 38.6828C30.5554 38.1282 30.4988 37.5533 30.2824 37.0308C30.0659 36.5083 29.6994 36.0617 29.2292 35.7475C28.759 35.4333 28.2062 35.2656 27.6406 35.2656C26.8823 35.2656 26.155 35.5669 25.6187 36.1031C25.0825 36.6394 24.7813 37.3666 24.7812 38.125ZM28.5938 38.125C28.5938 38.3135 28.5379 38.4978 28.4331 38.6545C28.3284 38.8113 28.1795 38.9334 28.0054 39.0056C27.8312 39.0777 27.6396 39.0966 27.4547 39.0598C27.2698 39.023 27.1 38.9323 26.9667 38.799C26.8334 38.6657 26.7426 38.4958 26.7058 38.311C26.669 38.1261 26.6879 37.9344 26.7601 37.7603C26.8322 37.5861 26.9544 37.4372 27.1111 37.3325C27.2678 37.2278 27.4521 37.1719 27.6406 37.1719C27.8934 37.1719 28.1358 37.2723 28.3146 37.451C28.4933 37.6298 28.5938 37.8722 28.5938 38.125Z" fill="#8D5DC6"/>
<path d="M37.1719 30.5H33.3594C33.1066 30.5 32.8642 30.6004 32.6854 30.7792C32.5067 30.9579 32.4062 31.2003 32.4062 31.4531V37.1719C32.4062 37.4247 32.5067 37.6671 32.6854 37.8458C32.8642 38.0246 33.1066 38.125 33.3594 38.125H33.5119L39.2306 37.1719C39.372 37.1484 39.5062 37.0934 39.6234 37.0109C39.7406 36.9284 39.8376 36.8205 39.9073 36.6953C39.9774 36.5716 40.0189 36.4338 40.0288 36.2919C40.0387 36.1501 40.0167 36.0079 39.9645 35.8756L38.0583 31.11C37.9892 30.9309 37.8675 30.7768 37.7094 30.668C37.5512 30.5591 37.3639 30.5006 37.1719 30.5ZM34.3125 36.0472V32.4062H36.5237L37.7533 35.4753L34.3125 36.0472Z" fill="#8D5DC6"/>
<path d="M24.18 54.3947C20.0148 52.7077 19.0617 49.467 19.0617 49.3241C18.9998 49.0789 18.843 48.8683 18.6258 48.7387C18.4086 48.6091 18.1488 48.5711 17.9036 48.633C17.6584 48.695 17.4479 48.8518 17.3183 49.069C17.1887 49.2861 17.1507 49.5459 17.2126 49.7911C17.7068 51.2626 18.5303 52.6019 19.6204 53.7069C20.7106 54.8119 22.0386 55.6535 23.5033 56.1675C23.6066 56.2085 23.7162 56.231 23.8273 56.2342C24.0494 56.2348 24.2646 56.1578 24.436 56.0165C24.6073 55.8753 24.7239 55.6786 24.7657 55.4606C24.8075 55.2425 24.7719 55.0166 24.665 54.8221C24.558 54.6275 24.3865 54.4763 24.18 54.3947Z" fill="#8D5DC6"/>
<path d="M27.6406 55.2812H25.7344V57.1875H27.6406V55.2812Z" fill="#8D5DC6"/>
</g>
<defs>
<clipPath id="clip0_4856_231">
<rect width="61" height="61" fill="white"/>
</clipPath>
</defs>
</svg>
