<svg width="58" height="58" viewBox="0 0 58 58" fill="none" xmlns="http://www.w3.org/2000/svg">
<path d="M39.5493 36.3733C39.3684 35.8711 38.8147 35.6109 38.3127 35.7918C37.8106 35.9727 37.5503 36.5264 37.7312 37.0284C37.7357 37.0407 37.7404 37.0529 37.7453 37.0651C38.6266 39.3649 38.6904 41.1235 37.9193 41.8966C36.9839 42.83 34.6542 42.5382 31.6857 41.1177C27.7116 39.0542 24.0993 36.3585 20.9899 33.1362C13.4209 25.5663 10.2979 18.1384 12.2295 16.2068C12.8459 15.72 13.647 15.533 14.4152 15.6966C14.9474 15.7357 15.4106 15.3359 15.4498 14.8037C15.4876 14.2893 15.1147 13.8359 14.6027 13.7737C13.2592 13.536 11.8808 13.9277 10.8632 14.8366C7.32266 18.3761 12.7349 27.609 19.6235 34.4987C22.8873 37.8761 26.6798 40.699 30.8518 42.8561C31.6074 43.2178 32.3859 43.5294 33.1825 43.7886L26.317 46.3917C17.1494 42.9063 10.5497 34.7789 9.02044 25.0909C8.9377 24.5636 8.4432 24.2032 7.91597 24.2859C7.38873 24.3687 7.02831 24.8632 7.11105 25.3904C7.26275 26.3567 7.46567 27.323 7.71401 28.268C9.93914 36.6988 15.7998 43.7026 23.7061 47.3793L12.4063 51.6551C12.3545 51.5686 12.2893 51.4911 12.2131 51.4252C9.34124 49.1195 7.53935 45.738 7.227 42.0686L6.77864 36.639C6.74337 36.113 6.28825 35.7151 5.7621 35.7504C5.75208 35.7511 5.74205 35.7518 5.73215 35.7529C5.20021 35.7952 4.80318 36.2608 4.84546 36.7927C4.84558 36.7949 4.84582 36.7972 4.84606 36.7994L5.30215 42.227C5.6418 46.1493 7.47147 49.7922 10.4148 52.4069L2.354 55.4584L3.80343 49.51C3.9299 48.9912 3.61199 48.4682 3.09321 48.3417C2.57443 48.2153 2.05143 48.5332 1.92497 49.0519L0.0397332 56.7823C-0.087334 57.3006 0.229851 57.8238 0.748266 57.9507C0.938383 57.9974 1.13804 57.9851 1.32103 57.9157L37.0738 44.3877C37.1307 44.3599 37.1844 44.3262 37.2342 44.2872C38.0079 44.1683 38.7253 43.8105 39.2856 43.2639C40.2431 42.3063 41.0673 40.3321 39.5493 36.3733Z" fill="#8D5DC6"/>
<path d="M48.6671 33.8812C43.4434 31.9257 37.7975 31.3774 32.2952 32.2917L28.8427 32.8714C28.3186 32.9722 27.9754 33.4786 28.0761 34.0027C28.1735 34.5091 28.6512 34.8498 29.1615 34.777L32.6131 34.202C37.7806 33.3429 43.0832 33.8581 47.9887 35.6959C48.0976 35.7344 48.2124 35.7538 48.3279 35.7529C48.8615 35.7538 49.2949 35.322 49.2958 34.7882C49.2965 34.3842 49.0457 34.0224 48.6671 33.8812Z" fill="#8D5DC6"/>
<path d="M52.1001 18.9101C51.8706 18.4281 51.294 18.2235 50.812 18.453L30.5199 28.1159C30.0381 28.3453 29.8334 28.9218 30.0628 29.4037C30.0628 29.4039 30.0629 29.404 30.0629 29.404C30.2923 29.8858 30.8688 30.0905 31.3507 29.8611C31.3508 29.8611 31.3508 29.861 31.351 29.861L51.6431 20.1981C52.125 19.9686 52.3296 19.392 52.1001 18.9101Z" fill="#8D5DC6"/>
<path d="M23.4793 6.55828C23.373 6.03527 22.8629 5.69744 22.3399 5.80373C21.8169 5.91002 21.479 6.4201 21.5853 6.9431C21.5876 6.9547 21.5903 6.96617 21.5931 6.97765C22.8161 12.4419 22.3121 18.1512 20.1504 23.3166L18.7454 26.688C18.5424 27.1793 18.7742 27.7422 19.2643 27.9481C19.3817 27.9975 19.5079 28.0227 19.6354 28.0225C20.0254 28.0225 20.3771 27.7881 20.5272 27.4282L21.9332 24.0607C24.2493 18.5276 24.7896 12.4117 23.4793 6.55828Z" fill="#8D5DC6"/>
<path d="M53.1606 34.7866C51.5596 34.7866 50.2617 36.0845 50.2617 37.6855C50.2617 39.2865 51.5596 40.5844 53.1606 40.5844C54.7616 40.5844 56.0595 39.2865 56.0595 37.6855C56.0595 36.0845 54.7616 34.7866 53.1606 34.7866ZM53.1606 38.6518C52.627 38.6518 52.1943 38.2191 52.1943 37.6855C52.1943 37.1519 52.627 36.7192 53.1606 36.7192C53.6942 36.7192 54.1269 37.1519 54.1269 37.6855C54.1269 38.2191 53.6942 38.6518 53.1606 38.6518Z" fill="#8D5DC6"/>
<path d="M29.9692 7.73047C28.3682 7.73047 27.0703 9.02832 27.0703 10.6293C27.0703 12.2304 28.3682 13.5282 29.9692 13.5282C31.5702 13.5282 32.8681 12.2304 32.8681 10.6293C32.8681 9.02832 31.5702 7.73047 29.9692 7.73047ZM29.9692 11.5956C29.4355 11.5956 29.0029 11.163 29.0029 10.6293C29.0029 10.0957 29.4355 9.66305 29.9692 9.66305C30.5028 9.66305 30.9355 10.0957 30.9355 10.6293C30.9355 11.163 30.5028 11.5956 29.9692 11.5956Z" fill="#8D5DC6"/>
<path d="M21.2724 3.86516C22.3398 3.86516 23.205 2.99992 23.205 1.93258C23.205 0.865246 22.3398 0 21.2724 0C20.2051 0 19.3398 0.865246 19.3398 1.93258C19.3398 2.99992 20.2051 3.86516 21.2724 3.86516Z" fill="#8D5DC6"/>
<path d="M48.3257 4.83154C47.792 4.83154 47.3594 5.2642 47.3594 5.79783V6.76412C47.3594 7.29776 47.792 7.73041 48.3257 7.73041C48.8593 7.73041 49.292 7.29776 49.292 6.76412V5.79783C49.292 5.2642 48.8593 4.83154 48.3257 4.83154Z" fill="#8D5DC6"/>
<path d="M48.3257 0C47.792 0 47.3594 0.432656 47.3594 0.96629V1.93258C47.3594 2.46621 47.792 2.89887 48.3257 2.89887C48.8593 2.89887 49.292 2.46621 49.292 1.93258V0.96629C49.292 0.432656 48.8593 0 48.3257 0Z" fill="#8D5DC6"/>
<path d="M51.2255 2.89893H50.2593C49.7256 2.89893 49.293 3.33158 49.293 3.86522C49.293 4.39885 49.7256 4.83151 50.2593 4.83151H51.2255C51.7592 4.83151 52.1918 4.39885 52.1918 3.86522C52.1918 3.33158 51.7592 2.89893 51.2255 2.89893Z" fill="#8D5DC6"/>
<path d="M46.3935 2.89893H45.4272C44.8936 2.89893 44.4609 3.33158 44.4609 3.86522C44.4609 4.39885 44.8936 4.83151 45.4272 4.83151H46.3935C46.9272 4.83151 47.3598 4.39885 47.3598 3.86522C47.3598 3.33158 46.9272 2.89893 46.3935 2.89893Z" fill="#8D5DC6"/>
<path d="M41.5641 10.6089H36.7124C36.1788 10.6089 35.7461 11.0415 35.7461 11.5752V16.4269C35.7461 16.9606 36.1788 17.3932 36.7124 17.3932H41.5641C42.0978 17.3932 42.5304 16.9606 42.5304 16.4269V11.5752C42.5304 11.0415 42.0978 10.6089 41.5641 10.6089ZM40.5978 15.4606H37.6787V12.5415H40.5978V15.4606Z" fill="#8D5DC6"/>
<path d="M34.5231 18.6778C34.1683 18.2991 33.5779 18.2682 33.1856 18.6077L23.5227 27.3043C23.1263 27.6614 23.0943 28.2722 23.4512 28.6687C23.8083 29.0651 24.4191 29.0971 24.8156 28.7402L34.4785 20.0436C34.8681 19.6787 34.888 19.0673 34.5231 18.6778Z" fill="#8D5DC6"/>
<path d="M52.1929 22.2246C51.6592 22.2246 51.2266 22.6573 51.2266 23.1909V24.1572C51.2266 24.6908 51.6592 25.1235 52.1929 25.1235C52.7265 25.1235 53.1591 24.6908 53.1591 24.1572V23.1909C53.1591 22.6573 52.7265 22.2246 52.1929 22.2246Z" fill="#8D5DC6"/>
<path d="M56.2934 22.0585L55.6102 21.3753C55.2264 21.0045 54.6147 21.0151 54.2439 21.399C53.8822 21.7734 53.8822 22.3671 54.2439 22.7417L54.927 23.4248C55.3109 23.7956 55.9226 23.785 56.2934 23.4011C56.6551 23.0266 56.6551 22.4329 56.2934 22.0585Z" fill="#8D5DC6"/>
<path d="M57.0224 18.3594H56.0561C55.5225 18.3594 55.0898 18.792 55.0898 19.3257C55.0898 19.8593 55.5225 20.292 56.0561 20.292H57.0224C57.5561 20.292 57.9887 19.8593 57.9887 19.3257C57.9887 18.792 57.5561 18.3594 57.0224 18.3594Z" fill="#8D5DC6"/>
<path d="M56.2697 15.2268C55.8953 14.8652 55.3016 14.8652 54.927 15.2268L54.2439 15.91C53.8665 16.2874 53.8666 16.8992 54.2441 17.2765C54.4253 17.4576 54.671 17.5594 54.927 17.5594C55.1833 17.5594 55.429 17.4575 55.6102 17.2763L56.2934 16.5931C56.6642 16.2093 56.6536 15.5975 56.2697 15.2268Z" fill="#8D5DC6"/>
<path d="M52.1929 13.5278C51.6592 13.5278 51.2266 13.9605 51.2266 14.4941V15.4604C51.2266 15.994 51.6592 16.4267 52.1929 16.4267C52.7265 16.4267 53.1591 15.994 53.1591 15.4604V14.4941C53.1591 13.9605 52.7265 13.5278 52.1929 13.5278Z" fill="#8D5DC6"/>
<path d="M50.1411 15.91L49.4579 15.2268C49.074 14.8561 48.4624 14.8666 48.0915 15.2505C47.7299 15.6249 47.7299 16.2186 48.0915 16.5932L48.7747 17.2763C49.1586 17.6471 49.7702 17.6365 50.1411 17.2527C50.5028 16.8781 50.5028 16.2844 50.1411 15.91Z" fill="#8D5DC6"/>
<path d="M11.5611 4.17812C11.4473 3.82856 11.145 3.57395 10.7813 3.52104L7.94521 3.10844L6.68034 0.539069C6.39842 0.0603922 5.78181 -0.0991666 5.30313 0.182749C5.15601 0.269353 5.03342 0.391951 4.94681 0.539069L3.67614 3.10844L0.840077 3.52104C0.311879 3.59726 -0.0544662 4.08729 0.02175 4.61549C0.0520673 4.82578 0.150871 5.02012 0.30282 5.16857L2.35425 7.16879L1.87111 9.99326C1.77835 10.5188 2.12911 11.0201 2.65465 11.1128C2.86627 11.1501 3.08417 11.116 3.27416 11.0156L5.81068 9.67825L8.34719 11.0117C8.81958 11.2601 9.40383 11.0785 9.65216 10.6061C9.75109 10.4181 9.78515 10.2027 9.74928 9.99326L9.26613 7.16879L11.3185 5.16857C11.5812 4.91141 11.6752 4.52755 11.5611 4.17812ZM7.55 6.13969C7.32244 6.36133 7.21844 6.68069 7.27171 6.99389L7.51135 8.39018L6.26 7.7302C5.97869 7.58248 5.64266 7.58248 5.36135 7.7302L4.10517 8.38922L4.34481 6.99292C4.39905 6.68093 4.29686 6.36206 4.07135 6.13969L3.05578 5.15117L4.45787 4.94729C4.77264 4.90163 5.04477 4.7039 5.18549 4.41873L5.81068 3.14999L6.43683 4.41873C6.57743 4.70366 6.84908 4.90127 7.16348 4.94729L8.5646 5.15117L7.55 6.13969Z" fill="#8D5DC6"/>
<path d="M54.7269 48.4353H54.7231L54.325 47.8381C52.0927 44.5 48.5825 42.2301 44.6224 41.564C44.0941 41.4886 43.6047 41.8558 43.5293 42.3841C43.4565 42.8946 43.7972 43.3723 44.3036 43.4695C47.1599 43.9544 49.763 45.4055 51.6773 47.5801C50.0679 47.8697 48.6602 48.8363 47.8122 50.2345C46.7715 52.0984 47.4388 54.4529 49.3027 55.4936C51.1665 56.5343 53.521 55.8669 54.5617 54.0031C54.9592 53.2357 55.1739 52.3867 55.1888 51.5226C56.217 53.0159 56.2992 54.966 55.4005 56.5405C55.1282 56.9995 55.2795 57.5923 55.7385 57.8646C56.1975 58.1368 56.7903 57.9855 57.0626 57.5265C57.0713 57.5118 57.0796 57.4969 57.0876 57.4817C58.8569 54.3215 57.8147 50.3281 54.7269 48.4353ZM52.8765 53.06C52.3607 53.9945 51.1851 54.3339 50.2507 53.8181C49.3163 53.3024 48.9768 52.1268 49.4925 51.1924C49.4954 51.1872 49.4983 51.1819 49.5012 51.1767C50.0715 50.243 51.0333 49.6171 52.118 49.4741C52.286 49.4695 52.4523 49.5081 52.6011 49.5861C53.4167 50.0413 53.4601 52.0144 52.8765 53.06Z" fill="#8D5DC6"/>
</svg>
