<svg width="80" height="94" viewBox="0 0 80 94" fill="none" xmlns="http://www.w3.org/2000/svg">
<path fill-rule="evenodd" clip-rule="evenodd" d="M52.5843 26.7204L52.5843 2.39225C52.5979 1.61026 53.2356 0.983524 54.0176 0.983643C54.7996 0.983524 55.4374 1.61038 55.4509 2.39225L55.4509 26.7204C55.4598 27.2384 55.1888 27.7209 54.7415 27.9826C54.2944 28.2442 53.7409 28.2443 53.2937 27.9826C52.8465 27.7209 52.5754 27.2384 52.5843 26.7204ZM44.648 27.6949C44.2548 28.6514 43.3267 29.2792 42.2925 29.288L32.7651 29.2889L32.7519 79.2356C32.7608 79.7537 32.4897 80.2362 32.0425 80.4979C31.5954 80.7594 31.0419 80.7596 30.5947 80.4979C30.1474 80.2362 29.8762 79.7535 29.8853 79.2356L29.8933 27.8505C29.8935 27.059 30.5352 26.4173 31.3267 26.4172L41.5496 26.4161L22.5938 7.46039L3.6382 26.416L13.8793 26.4191C14.6708 26.4192 15.3125 27.0609 15.3126 27.8524L15.3025 79.2355C15.3033 80.0279 14.6616 80.6711 13.8692 80.6719C13.0767 80.6727 12.4336 80.031 12.4328 79.2386L12.4368 29.2889H2.90824C1.87192 29.2844 0.939537 28.6583 0.543255 27.7008C0.146973 26.7434 0.363883 25.6415 1.09385 24.9058L20.7793 5.22038C21.782 4.21981 23.4056 4.21981 24.4083 5.22038L44.0938 24.9058C44.8228 25.6394 45.0412 26.7384 44.648 27.6949ZM49.7572 66.1349C49.7571 66.9264 49.1154 67.5681 48.3239 67.5682L38.103 67.5713L57.0584 86.5267L76.0201 67.565L65.7799 67.5752C64.9884 67.5751 64.3467 66.9334 64.3466 66.1419L64.3567 14.7588C64.3864 13.9908 65.0165 13.3828 65.7851 13.3805C66.5539 13.3784 67.1876 13.9828 67.2214 14.7508L67.2144 64.6974L76.743 64.6974C77.7799 64.7011 78.7133 65.3273 79.1099 66.2853C79.5066 67.2433 79.2892 68.3459 78.5585 69.0816L58.873 88.7671C57.8715 89.7664 56.2503 89.7679 55.2471 88.7702L35.5616 69.0847C34.832 68.3513 34.6131 67.2521 35.0062 66.2953C35.3992 65.3384 36.3276 64.7104 37.362 64.7016L46.8906 64.7016L46.9007 14.7518C46.9142 13.97 47.552 13.3433 48.334 13.3432C49.116 13.3431 49.7538 13.97 49.7673 14.7518L49.7572 66.1349ZM20.5664 86.5269C20.8353 86.2581 20.9861 85.8934 20.9861 85.5133V67.2672C20.9726 66.4853 20.3348 65.8585 19.5528 65.8586C18.7707 65.8586 18.133 66.4853 18.1195 67.2672L18.1195 85.5133C18.1195 86.093 18.4689 86.6155 19.0044 86.8374C19.5399 87.0593 20.1565 86.9369 20.5664 86.5269ZM27.0682 91.5953C27.0682 91.9754 26.9173 92.3401 26.6485 92.6089C26.2385 93.0189 25.622 93.1415 25.0864 92.9195C24.5509 92.6976 24.2015 92.175 24.2015 91.5953V67.2672C24.2151 66.4853 24.8527 65.8586 25.6348 65.8586C26.4168 65.8585 27.0546 66.4853 27.0682 67.2672L27.0682 91.5953ZM58.6663 8.47428V26.7204C58.6574 27.2384 58.9285 27.7209 59.3757 27.9826C59.8228 28.2442 60.3764 28.2442 60.8235 27.9826C61.2707 27.7211 61.5419 27.2384 61.5329 26.7204V8.47428C61.5194 7.69241 60.8816 7.06555 60.0996 7.06567C59.3176 7.06555 58.68 7.69229 58.6663 8.47428Z" fill="url(#paint0_linear_4856_72)"/>
<defs>
<linearGradient id="paint0_linear_4856_72" x1="1.45351" y1="8.98757" x2="89.8044" y2="24.716" gradientUnits="userSpaceOnUse">
<stop stop-color="#FE792E"/>
<stop offset="1" stop-color="#825AD3"/>
</linearGradient>
</defs>
</svg>
