<svg width="90" height="90" viewBox="0 0 90 90" fill="none" xmlns="http://www.w3.org/2000/svg">
<path fill-rule="evenodd" clip-rule="evenodd" d="M74.8448 0C79.0827 0 83.0107 1.70596 85.9051 4.8034C88.8022 7.90365 90.2395 11.9431 89.952 16.1779L85.9013 75.8749C85.3639 83.7956 78.728 90 70.7939 90H19.2039C11.27 90 4.63408 83.7956 4.09654 75.8749L3.1765 62.3159C3.06154 60.6194 5.69193 60.4412 5.80724 62.1373L6.72728 75.6963C7.1713 82.2386 12.6516 87.3633 19.2041 87.3633H70.7941C77.3463 87.3633 82.8269 82.2386 83.2707 75.6965L87.3214 15.9994C87.8053 8.86799 81.9928 2.63672 74.8448 2.63672H15.1532C8.00521 2.63672 2.19247 8.86799 2.67658 15.9994L5.31822 54.9302C5.43318 56.6269 2.80244 56.8046 2.68747 55.1088L0.045834 16.1779C-0.540045 7.54506 6.49718 0 15.1532 0H74.8448ZM59.5887 31.9922C58.8607 31.9922 58.2704 31.4019 58.2704 30.6738C58.2704 29.9457 58.8607 29.3555 59.5887 29.3555H63.4974C63.2014 25.1612 61.5041 21.3476 58.8723 18.3807L57.1081 20.1449C55.9059 21.3472 54.0414 19.4827 55.2438 18.2805L56.9877 16.5366C55.2083 15.0253 53.1409 13.844 50.8807 13.0862L50.2243 15.5355C49.7858 17.1722 47.2373 16.4964 47.6775 14.853L48.327 12.4293C46.0054 12.0069 43.605 12.0312 41.2927 12.5021L41.9582 14.9855C42.3986 16.6289 39.8499 17.3048 39.4113 15.6681L38.7532 13.2122C36.5008 14.0203 34.4485 15.252 32.6935 16.8117L34.5243 18.6427C35.7268 19.8448 33.8619 21.7095 32.6599 20.507L30.8504 18.6977C28.3756 21.6169 26.7859 25.309 26.5004 29.3555H42.9728L37.9604 20.4205C37.1286 18.9376 39.4282 17.6476 40.26 19.1304L45.9961 29.3555H52.3817C54.082 29.3555 54.082 31.9922 52.3817 31.9922H25.1356C24.4075 31.9922 23.8173 31.4019 23.8173 30.6738C23.8173 18.9942 33.3193 9.49219 44.9989 9.49219C56.6785 9.49219 66.1805 18.9942 66.1805 30.6738C66.1805 31.4019 65.5903 31.9922 64.8622 31.9922H59.5887ZM13.2704 8.4375C10.7019 8.4375 8.61218 10.5272 8.61218 13.0957C8.61218 15.6642 10.7019 17.7539 13.2704 17.7539C15.8389 17.7539 17.9286 15.6642 17.9286 13.0957C17.9286 10.5272 15.8391 8.4375 13.2704 8.4375ZM13.2704 15.1172C12.1558 15.1172 11.2489 14.2103 11.2489 13.0957C11.2489 11.9811 12.1558 11.0742 13.2704 11.0742C14.385 11.0742 15.2919 11.9811 15.2919 13.0957C15.2919 14.2103 14.3852 15.1172 13.2704 15.1172ZM81.3856 13.0957C81.3856 15.6642 79.2959 17.7539 76.7274 17.7539C74.1589 17.7539 72.0692 15.6642 72.0692 13.0957C72.0692 10.5272 74.1587 8.4375 76.7274 8.4375C79.2961 8.4375 81.3856 10.5272 81.3856 13.0957ZM78.7489 13.0957C78.7489 11.9811 77.842 11.0742 76.7274 11.0742C75.6128 11.0742 74.7059 11.9811 74.7059 13.0957C74.7059 14.2103 75.6128 15.1172 76.7274 15.1172C77.842 15.1172 78.7489 14.2103 78.7489 13.0957ZM12.6552 76.2012C12.6552 78.7697 14.7448 80.8594 17.3134 80.8594C19.8819 80.8594 21.9716 78.7697 21.9716 76.2012C21.9716 73.6327 19.8819 71.543 17.3134 71.543C14.7448 71.543 12.6552 73.6327 12.6552 76.2012ZM17.3134 74.1797C18.428 74.1797 19.3348 75.0865 19.3348 76.2012C19.3348 77.3158 18.428 78.2227 17.3134 78.2227C16.1987 78.2227 15.2919 77.3158 15.2919 76.2012C15.2919 75.0865 16.1987 74.1797 17.3134 74.1797ZM72.6844 80.8594C70.1159 80.8594 68.0262 78.7697 68.0262 76.2012C68.0262 73.6327 70.1159 71.543 72.6844 71.543C75.253 71.543 77.3426 73.6327 77.3426 76.2012C77.3426 78.7697 75.253 80.8594 72.6844 80.8594ZM74.7059 76.2012C74.7059 75.0865 73.7991 74.1797 72.6844 74.1797C71.5698 74.1797 70.663 75.0865 70.663 76.2012C70.663 77.3158 71.5698 78.2227 72.6844 78.2227C73.7991 78.2227 74.7059 77.3158 74.7059 76.2012Z" fill="url(#paint0_linear_4856_82)"/>
<defs>
<linearGradient id="paint0_linear_4856_82" x1="1.27189" y1="7.82609" x2="100.856" y2="28.4873" gradientUnits="userSpaceOnUse">
<stop stop-color="#FE792E"/>
<stop offset="1" stop-color="#825AD3"/>
</linearGradient>
</defs>
</svg>
