<svg width="101" height="78" viewBox="0 0 101 78" fill="none" xmlns="http://www.w3.org/2000/svg">
<path d="M45.7306 16.9041C44.8965 17.0748 44.0729 17.2937 43.264 17.5596C42.7989 17.7124 42.3316 17.8836 41.8751 18.0685C41.7238 18.1272 41.5858 18.2154 41.4689 18.328C41.352 18.4405 41.2587 18.5752 41.1943 18.7241C41.1299 18.873 41.0958 19.0333 41.0938 19.1955C41.0919 19.3578 41.1223 19.5188 41.1831 19.6692C41.244 19.8196 41.3341 19.9564 41.4483 20.0717C41.5625 20.1869 41.6984 20.2784 41.8483 20.3406C41.9981 20.4029 42.1588 20.4348 42.3211 20.4344C42.4833 20.434 42.6439 20.4014 42.7934 20.3384C43.1991 20.1739 43.6146 20.0217 44.0282 19.8858C44.7473 19.6496 45.4794 19.455 46.2208 19.303C46.3803 19.2728 46.5321 19.2111 46.6676 19.1217C46.803 19.0323 46.9193 18.9168 47.0098 18.782C47.1002 18.6472 47.1629 18.4958 47.1943 18.3366C47.2256 18.1773 47.225 18.0134 47.1925 17.8544C47.1599 17.6954 47.0961 17.5444 47.0047 17.4103C46.9133 17.2762 46.7961 17.1616 46.66 17.0732C46.5239 16.9847 46.3716 16.9242 46.2119 16.8952C46.0522 16.8662 45.8883 16.8692 45.7298 16.9041H45.7306Z" fill="url(#paint0_linear_4856_87)"/>
<path d="M38.06 20.0667C34.9705 22.0812 32.4332 24.8355 30.6784 28.0795C28.9236 31.3235 28.007 34.9545 28.0117 38.6427C28.0117 38.9675 28.1407 39.2789 28.3704 39.5085C28.6 39.7382 28.9114 39.8672 29.2362 39.8672C29.5609 39.8672 29.8723 39.7382 30.102 39.5085C30.3316 39.2789 30.4606 38.9675 30.4606 38.6427C30.4564 35.3612 31.2721 32.1306 32.8335 29.2443C34.3949 26.3581 36.6526 23.9076 39.4016 22.1154C39.6723 21.9371 39.8613 21.6587 39.927 21.3413C39.9928 21.0238 39.93 20.6933 39.7524 20.4221C39.5748 20.1509 39.2969 19.9611 38.9797 19.8945C38.6624 19.8279 38.3317 19.8899 38.06 20.0667Z" fill="url(#paint1_linear_4856_87)"/>
<path d="M85.6251 22.6936C82.3988 19.9414 78.9627 17.4452 75.348 15.2276L88.4737 2.10195C88.5899 1.98883 88.6825 1.85375 88.7461 1.70455C88.8097 1.55535 88.8431 1.395 88.8442 1.23281C88.8453 1.07062 88.8142 0.909826 88.7526 0.759766C88.6911 0.609707 88.6003 0.473371 88.4856 0.358677C88.3709 0.243983 88.2346 0.153216 88.0846 0.0916474C87.9345 0.030079 87.7737 -0.00106328 87.6115 2.77035e-05C87.4493 0.00111869 87.289 0.0344214 87.1398 0.0980028C86.9906 0.161584 86.8555 0.254177 86.7424 0.370403L73.1608 13.952C72.038 13.3253 70.9164 12.7419 69.7961 12.2016C63.1489 9.00813 56.5565 7.38882 50.2016 7.38882C43.8466 7.38882 37.2543 9.00813 30.607 12.2016C25.3291 14.7374 20.0035 18.2675 14.7781 22.6936C5.90544 30.2089 0.463062 37.6091 0.235523 37.9205C0.0824763 38.1302 0 38.383 0 38.6425C0 38.9021 0.0824763 39.1549 0.235523 39.3645C0.463062 39.6759 5.90544 47.0762 14.7781 54.5915C18.0044 57.3436 21.4405 59.8399 25.0551 62.0575L11.9294 75.1833C11.8125 75.2963 11.7192 75.4314 11.655 75.5808C11.5909 75.7302 11.5571 75.8908 11.5557 76.0534C11.5542 76.216 11.5852 76.3772 11.6468 76.5277C11.7084 76.6782 11.7993 76.8149 11.9142 76.9298C12.0292 77.0448 12.1659 77.1357 12.3164 77.1973C12.4669 77.2589 12.6281 77.2898 12.7907 77.2884C12.9533 77.287 13.1139 77.2532 13.2633 77.1891C13.4127 77.1249 13.5478 77.0316 13.6608 76.9147L27.2423 63.3331C28.3651 63.9597 29.4867 64.5432 30.607 65.0834C37.2543 68.2771 43.8466 69.8962 50.2016 69.8962C56.5565 69.8962 63.1489 68.2771 69.7961 65.0834C75.074 62.5476 80.3996 59.0176 85.6251 54.5915C94.4977 47.0762 99.9401 39.6759 100.168 39.3645C100.321 39.1549 100.403 38.9021 100.403 38.6425C100.403 38.383 100.321 38.1302 100.168 37.9205C99.9401 37.6091 94.4977 30.2089 85.6251 22.6936ZM26.8493 60.2631C23.1672 58.0526 19.6735 55.5426 16.4035 52.7585C11.4042 48.5128 6.83557 43.7846 2.76397 38.6425C6.82296 33.5139 11.3772 28.7975 16.3608 24.5616C24.2912 17.8444 36.5998 9.83727 50.2016 9.83727C57.8408 9.83727 65.0716 12.3633 71.3462 15.7659L69.171 17.9413C64 13.1836 57.2283 10.5453 50.2016 10.5507C34.7125 10.5507 22.1097 23.1527 22.1097 38.6425C22.1044 45.6694 24.7428 52.441 29.5008 57.612L26.8493 60.2631ZM57.2559 33.3191C58.5422 35.0205 59.1697 37.1297 59.0226 39.2575C58.8756 41.3854 57.9638 43.3882 56.4556 44.8964C54.9474 46.4046 52.9446 47.3163 50.8168 47.4634C48.6889 47.6105 46.5797 46.983 44.8784 45.6967L57.2559 33.3191ZM43.1468 43.9651C41.8607 42.2637 41.2333 40.1546 41.3804 38.0269C41.5276 35.8991 42.4394 33.8964 43.9475 32.3883C45.4557 30.8802 47.4584 29.9685 49.5861 29.8213C51.7138 29.6742 53.823 30.3016 55.5243 31.5878L43.1468 43.9651ZM50.2016 27.3519C48.0728 27.3503 45.9869 27.951 44.1851 29.0846C42.3832 30.2182 40.9389 31.8385 40.0188 33.7582C39.0988 35.6779 38.7407 37.8188 38.9859 39.9334C39.231 42.048 40.0694 44.0502 41.4043 45.7085L31.2325 55.8802C26.8038 51.0061 24.4211 44.6143 24.5786 38.0305C24.7361 31.4468 27.4218 25.1763 32.0785 20.5195C36.7353 15.8627 43.0058 13.1771 49.5896 13.0196C56.1733 12.8621 62.5651 15.2448 67.4393 19.6735L57.2673 29.8454C55.2668 28.2301 52.7728 27.3499 50.2016 27.3519ZM43.1358 47.4398C45.3032 49.1842 48.0388 50.0663 50.817 49.9165C53.5952 49.7667 56.2201 48.5957 58.1874 46.6284C60.1547 44.661 61.3257 42.0361 61.4755 39.258C61.6253 36.4798 60.7433 33.7442 58.9989 31.5768L69.1706 21.405C73.5989 26.2793 75.9812 32.6709 75.8234 39.2544C75.6657 45.8379 72.9801 52.1081 68.3235 56.7647C63.6669 61.4212 57.3967 64.1068 50.8132 64.2645C44.2297 64.4222 37.838 62.0399 32.9639 57.6116L43.1358 47.4398ZM84.0423 52.7234C76.1119 59.4403 63.8033 67.4474 50.2016 67.4474C42.5624 67.4474 35.3315 64.9214 29.0569 61.5187L31.2321 59.3433C36.4031 64.1012 43.1747 66.7397 50.2016 66.7344C65.6906 66.7344 78.2934 54.1324 78.2934 38.6425C78.2987 31.6158 75.6603 24.8442 70.9023 19.6733L73.5538 17.0218C77.2359 19.2322 80.7297 21.7421 83.9996 24.5261C88.999 28.772 93.5676 33.5003 97.6391 38.6425C93.5801 43.7712 89.0259 48.4876 84.0423 52.7234Z" fill="url(#paint2_linear_4856_87)"/>
<defs>
<linearGradient id="paint0_linear_4856_87" x1="41.1795" y1="17.185" x2="47.4493" y2="19.4238" gradientUnits="userSpaceOnUse">
<stop stop-color="#FE792E"/>
<stop offset="1" stop-color="#825AD3"/>
</linearGradient>
<linearGradient id="paint1_linear_4856_87" x1="28.179" y1="21.6074" x2="41.7553" y2="23.2897" gradientUnits="userSpaceOnUse">
<stop stop-color="#FE792E"/>
<stop offset="1" stop-color="#825AD3"/>
</linearGradient>
<linearGradient id="paint2_linear_4856_87" x1="1.4062" y1="6.72074" x2="109.46" y2="35.8516" gradientUnits="userSpaceOnUse">
<stop stop-color="#FE792E"/>
<stop offset="1" stop-color="#825AD3"/>
</linearGradient>
</defs>
</svg>
