<svg width="90" height="84" viewBox="0 0 90 84" fill="none" xmlns="http://www.w3.org/2000/svg">
<path fill-rule="evenodd" clip-rule="evenodd" d="M72.6418 34.9451C72.6443 34.9515 72.6468 34.958 72.6495 34.9644C78.1344 45.7676 79.4482 53.8453 76.3814 65.7629C76.2282 66.3577 75.6926 66.7531 75.1055 66.7531C74.9966 66.7531 74.8862 66.7395 74.7759 66.7111C74.0709 66.5297 73.6462 65.8109 73.8278 65.1058C75.491 58.6427 75.7035 53.4872 74.8723 48.749C70.522 49.9918 61.5254 53.8008 50.5187 65.3273C49.0532 66.8619 47.6905 67.7735 46.3184 68.1251V80.6368H67.8022C67.9744 80.6368 68.1318 80.5356 68.203 80.3786C69.7324 77.0219 71.0251 73.8438 72.0457 70.9303C72.2865 70.243 73.0392 69.8813 73.7258 70.1219C74.4131 70.3627 74.7751 71.1149 74.5342 71.802C73.4875 74.7903 72.1649 78.043 70.6032 81.47C70.1063 82.565 69.0066 83.2735 67.8022 83.2735H22.1975C20.9932 83.2735 19.8935 82.565 19.3957 81.4683C8.5115 57.5787 10.899 46.6571 19.318 31.2458H6.61817C2.96895 31.2458 0 28.2768 0 24.6276V14.0262C0 10.377 2.96895 7.40808 6.61817 7.40825H23.5724C23.3409 6.13472 23.0495 4.83218 22.6923 3.49431C22.5142 2.82792 22.6529 2.13183 23.0729 1.58497C23.4916 1.03952 24.126 0.726807 24.8133 0.726807H29.8002C30.5283 0.726807 31.1186 1.31708 31.1186 2.04517C31.1186 2.77325 30.5283 3.36353 29.8002 3.36353H25.3835C26.6258 8.20947 27.1916 13.0957 26.6409 18.0089H52.5586C54.2547 18.0089 55.6348 19.3892 55.6348 21.0856V28.1696C55.6348 29.8657 54.2547 31.2458 52.5586 31.2458H22.3251L22.3117 31.2702C22.1638 31.5404 20.8814 33.8826 20.2994 34.9913C37.0979 42.8588 51.9975 42.8171 69.627 34.8546C69.0423 33.7419 68.4239 32.604 67.7755 31.4291C62.8924 22.581 61.9109 13.9027 64.6161 3.36405H35.9522C35.2241 3.36405 34.6338 2.77378 34.6338 2.04569C34.6338 1.31761 35.2241 0.727334 35.9522 0.727334H65.1864C66.6316 0.727334 67.6811 2.09737 67.3077 3.49431C64.6146 13.5733 65.4706 21.796 70.0838 30.1552C70.9597 31.7427 71.7884 33.2762 72.5562 34.7813C72.5826 34.8238 72.6072 34.8679 72.629 34.9143C72.6337 34.9245 72.6377 34.9348 72.6418 34.9451ZM23.9665 10.0448H6.61817C4.42283 10.0448 2.63672 11.8309 2.63672 14.0262C2.63672 16.2223 4.42301 18.0089 6.61852 18.0089H23.9871C24.2967 15.4668 24.2903 12.826 23.9665 10.0448ZM2.63672 19.3106V24.6276C2.63672 26.8229 4.42283 28.6091 6.61817 28.6091H9.65584V25.3819C9.65584 24.6538 10.2461 24.0635 10.9742 24.0635C11.7023 24.0635 12.2926 24.6538 12.2926 25.3819V28.6091H18.3444V25.3819C18.3444 24.6538 18.9346 24.0635 19.6627 24.0635C20.3908 24.0635 20.9811 24.6538 20.9811 25.3819V28.6091H27.0329V25.3819C27.0329 24.6538 27.6231 24.0635 28.3512 24.0635C29.0793 24.0635 29.6696 24.6538 29.6696 25.3819V28.6091H35.7214V25.3819C35.7214 24.6538 36.3117 24.0635 37.0397 24.0635C37.7678 24.0635 38.3581 24.6538 38.3581 25.3819V28.6091H44.4099V25.3819C44.4099 24.6538 45.0002 24.0635 45.7283 24.0635C46.4564 24.0635 47.0466 24.6538 47.0466 25.3819V28.6091H52.5586C52.8008 28.6091 52.9981 28.4118 52.9981 28.1696V21.0856C52.9981 20.843 52.8008 20.6456 52.5586 20.6456H6.61852C5.1249 20.6456 3.74555 20.1484 2.63672 19.3106ZM21.796 80.3768C21.8681 80.5354 22.0254 80.6368 22.1977 80.6368H43.6816V68.1252C42.3095 67.7737 40.9468 66.8621 39.4813 65.3275C28.4843 53.8112 19.4938 49.9987 15.1392 48.7524C13.2994 59.3058 17.238 70.3726 21.796 80.3768ZM41.3884 63.5064C44.1218 66.3688 45.8814 66.3655 48.6118 63.5064C52.7034 59.2214 63.1804 49.2087 74.3091 46.1647C73.524 43.153 72.3254 40.2491 70.8263 37.206C61.5502 41.4073 52.9768 43.4643 44.6546 43.4867C44.6089 43.4868 44.563 43.4868 44.5173 43.4868C36.2354 43.4868 27.9079 41.4738 19.1034 37.3424C17.6593 40.2857 16.4788 43.1562 15.6994 46.167C26.8251 49.2138 37.2976 59.2224 41.3884 63.5064ZM87.6681 46.1278C88.1336 45.5679 88.965 45.4916 89.5247 45.9573C90.0844 46.4229 90.1609 47.2542 89.6954 47.814L86.137 52.0917C85.8901 52.388 85.5139 52.567 85.1224 52.567C84.8596 52.567 84.5789 52.4835 84.3441 52.3117L79.8566 49.022C79.2694 48.5915 79.1423 47.7666 79.5728 47.1793C80.0033 46.592 80.8283 46.4651 81.4156 46.8956L83.4922 48.418C82.3669 40.6367 79.0988 34.1956 75.2852 27.2851C72.1628 21.6268 71.1499 16.3288 72.0012 10.1068C72.0998 9.38544 72.7646 8.88042 73.4861 8.97939C74.2075 9.078 74.7123 9.7428 74.6135 10.4642C73.8443 16.0873 74.7633 20.8821 77.5937 26.0112C81.5356 33.1544 84.9161 39.8271 86.0993 48.0139L87.6681 46.1278Z" fill="url(#paint0_linear_4856_73)"/>
<defs>
<linearGradient id="paint0_linear_4856_73" x1="1.2605" y1="7.90479" x2="100.099" y2="30.2686" gradientUnits="userSpaceOnUse">
<stop stop-color="#FE792E"/>
<stop offset="1" stop-color="#825AD3"/>
</linearGradient>
</defs>
</svg>
