<svg width="82" height="90" viewBox="0 0 82 90" fill="none" xmlns="http://www.w3.org/2000/svg">
<path fill-rule="evenodd" clip-rule="evenodd" d="M59.097 22.5C63.8797 22.5 70.9067 24.0497 77.225 31.4297C80.3328 35.062 81.7812 39.8208 81.7812 46.4062C81.7812 64.5455 66.8244 89.4108 51.53 89.9859C51.2811 89.9958 51.0378 90 50.7987 90C46.3705 90 43.4553 88.4222 41.7622 87.0581C41.3192 86.7009 40.6794 86.7009 40.2392 87.0567C38.4533 88.4953 35.2864 90.1519 30.47 89.9859C15.1756 89.4108 0.21875 64.5455 0.21875 46.4062C0.21875 39.8208 1.66719 35.062 4.77641 31.4283C7.34281 28.4259 9.87828 26.2533 12.4756 24.8105C3.15641 15.4111 5.75094 1.73813 5.87187 1.13063C6.00266 0.4725 6.57922 0 7.25 0C8.38625 0 33.3064 0.205312 39.5684 16.1353C41.5513 12.4509 44.3708 9.26859 47.9947 6.65016C49.1534 5.81484 50.6286 5.50125 52.0363 5.79234C53.458 6.08625 54.6997 6.96656 55.4408 8.20828C55.9273 9.01547 56.1875 9.93656 56.1875 10.8703C56.1875 12.735 55.1666 14.4619 53.5255 15.3759C50.2264 17.1984 46.4563 20.7084 45.7123 27.3108C48.5305 24.923 52.9011 22.5098 59.097 22.5ZM51.4681 8.54859C50.8156 8.41359 50.1702 8.55 49.6428 8.93109C45.3467 12.0347 42.3022 15.9961 40.5922 20.7014C39.0003 25.1198 39.0861 28.9434 39.1747 30.2302C40.1717 31.0894 41.7777 31.0936 42.7831 30.2527C42.5764 19.8309 48.5305 14.9217 52.1614 12.9164C52.9081 12.5002 53.375 11.7155 53.375 10.8703C53.375 10.4498 53.2555 10.0308 53.0305 9.65953C52.6888 9.08438 52.1206 8.68359 51.4681 8.54859ZM36.6603 24.7598C36.8839 23.3578 37.2481 21.7941 37.8148 20.1403C35.5761 8.70891 22.8003 4.81641 14.4866 3.49594C21.1142 7.30969 31.0297 14.3578 36.6603 24.7598ZM34.0123 25.8075C27.0584 13.3298 13.2097 5.80359 8.40312 3.48188C8.05719 7.43203 8.09656 17.0395 15.2572 23.5617C17.2119 22.8628 19.2636 22.5 21.5094 22.5C26.967 22.5 31.0592 23.9991 34.0123 25.8075ZM43.5298 84.87C44.9361 86.0034 47.442 87.3155 51.4231 87.1748C64.0386 86.7009 78.9688 64.6017 78.9688 46.4062C78.9688 40.4494 77.772 36.3937 75.0875 33.2578C69.4653 26.6906 63.2891 25.3125 59.0984 25.3125C51.6425 25.3252 47.2395 29.3386 45.2792 31.7306L45.2791 31.7314L45.2787 31.7323L45.2778 31.7334C44.2217 33.0159 42.6566 33.75 40.9859 33.75C39.3491 33.75 37.805 33.0356 36.7489 31.7897C34.707 29.3695 30.0158 25.3125 21.5094 25.3125C19.3128 25.3125 17.3356 25.6908 15.4681 26.4684C12.6078 27.6455 9.81078 29.8645 6.9125 33.2564C4.22797 36.3937 3.03125 40.4494 3.03125 46.4062C3.03125 64.6017 17.9614 86.7009 30.5769 87.1748C34.5523 87.3323 37.0639 86.0034 38.473 84.8686C39.2042 84.2766 40.1028 83.9813 41 83.9813C41.8972 83.9813 42.7958 84.278 43.5298 84.87ZM10.0625 46.4062C10.0625 50.2003 10.8444 54.3009 12.387 58.5942C12.65 59.3255 12.2703 60.1298 11.5391 60.3914C11.383 60.4491 11.2212 60.4758 11.0638 60.4758C10.4872 60.4758 9.94578 60.1186 9.74047 59.5448C8.08812 54.9464 7.25 50.5252 7.25 46.4062C7.25 41.5266 8.13453 38.3189 10.1173 36.0014C10.6222 35.4122 11.5109 35.3433 12.1002 35.8481C12.6894 36.353 12.7583 37.2403 12.2534 37.8309C10.7375 39.6014 10.0625 42.2466 10.0625 46.4062ZM14.4978 63.5709C14.1561 62.8734 13.3123 62.5838 12.6163 62.9269C11.9188 63.2686 11.6305 64.1109 11.9722 64.8084C12.5389 65.9644 13.152 67.1091 13.7919 68.2074C14.0534 68.656 14.5245 68.9063 15.0083 68.9063C15.2487 68.9063 15.492 68.8444 15.7142 68.715C16.385 68.3241 16.6128 67.4635 16.2205 66.7927C15.6158 65.7506 15.035 64.6664 14.4978 63.5709ZM16.0461 32.7741C16.0461 33.5507 15.4165 34.1803 14.6398 34.1803C13.8632 34.1803 13.2336 33.5507 13.2336 32.7741C13.2336 31.9974 13.8632 31.3678 14.6398 31.3678C15.4165 31.3678 16.0461 31.9974 16.0461 32.7741ZM72.3594 55.4738C71.6239 55.2389 70.8294 55.6523 70.5959 56.392C67.6541 65.7281 62.143 73.7522 54.6561 79.5966C54.043 80.0747 53.9347 80.9578 54.4128 81.5695C54.6898 81.9253 55.1033 82.111 55.5223 82.111C55.8247 82.111 56.1298 82.0139 56.3872 81.8128C64.3255 75.6155 70.167 67.1175 73.2791 57.2358C73.5125 56.4975 73.1005 55.7072 72.3594 55.4738ZM72.7405 46.1138C72.8262 45.3417 73.528 44.7919 74.293 44.8706C75.065 44.9564 75.6219 45.6511 75.5361 46.4231C75.3702 47.9264 75.1466 49.4283 74.8695 50.8866C74.743 51.5616 74.1523 52.0312 73.49 52.0312C73.4028 52.0312 73.3156 52.0242 73.2256 52.0045C72.4634 51.8611 71.9614 51.1242 72.1062 50.362C72.3692 48.9755 72.583 47.5453 72.7405 46.1138Z" fill="url(#paint0_linear_4856_108)"/>
<defs>
<linearGradient id="paint0_linear_4856_108" x1="1.36108" y1="7.82609" x2="92.3021" y2="24.9297" gradientUnits="userSpaceOnUse">
<stop stop-color="#FE792E"/>
<stop offset="1" stop-color="#825AD3"/>
</linearGradient>
</defs>
</svg>
