<svg width="90" height="90" viewBox="0 0 90 90" fill="none" xmlns="http://www.w3.org/2000/svg">
<g clip-path="url(#clip0_4856_88)">
<path d="M17.2819 33.332C17.5529 33.332 17.8261 33.2487 18.0612 33.0763L19.7616 31.8296C21.2025 30.773 22.2887 29.3274 22.9028 27.6491C24.779 22.5208 28.766 18.4242 33.8413 16.4095L36.0382 15.5374C37.2987 19.2296 40.7994 21.8933 44.9129 21.8933C49.0264 21.8933 52.5273 19.2296 53.7876 15.5374L55.9845 16.4095C56.9835 16.8062 57.9607 17.294 58.8889 17.8597C59.1034 17.9905 59.3403 18.0526 59.5745 18.0526C60.0197 18.0526 60.4542 17.8273 60.7028 17.4194C61.082 16.797 60.8849 15.9849 60.2625 15.6055C59.2072 14.9626 58.0958 14.4077 56.9585 13.9562L54.2805 12.8932C54.2854 12.768 54.29 12.6426 54.29 12.5162C54.29 8.70632 52.0046 5.4222 48.7341 3.9562C49.0505 3.48126 49.4161 3.03413 49.8288 2.62148L50.1976 2.25265C50.713 1.73723 50.713 0.901554 50.1976 0.386316C49.6822 -0.129098 48.8465 -0.129098 48.3313 0.386316L47.9625 0.755148C47.2202 1.49739 46.5969 2.32603 46.0958 3.21643C45.7081 3.16733 45.3139 3.13918 44.9131 3.13918C39.7426 3.13918 35.536 7.34572 35.536 12.5162C35.536 12.6426 35.5406 12.7679 35.5455 12.8932L32.8675 13.9562C27.0937 16.248 22.5585 20.9082 20.424 26.7419C19.9893 27.9299 19.2205 28.953 18.2008 29.7009L16.5004 30.9478C15.9126 31.3787 15.7854 32.2047 16.2165 32.7925C16.4752 33.1451 16.8757 33.332 17.2819 33.332ZM44.9129 5.77872C44.9576 5.77872 45.0016 5.78118 45.0461 5.78206C44.7883 6.73669 44.6523 7.73074 44.6523 8.74626V11.1025C44.6523 11.8314 45.2432 12.4223 45.9721 12.4223C46.7009 12.4223 47.2918 11.8314 47.2918 11.1025V8.74626C47.2918 7.92431 47.4076 7.12066 47.6276 6.35167C49.994 7.39799 51.6504 9.76653 51.6504 12.5161C51.6504 16.2311 48.628 19.2536 44.9129 19.2536C41.1978 19.2536 38.1754 16.2311 38.1754 12.5161C38.1756 8.80116 41.198 5.77872 44.9129 5.77872Z" fill="url(#paint0_linear_4856_88)"/>
<path d="M84.3819 53.5893C84.3819 50.519 82.7445 47.7651 80.1696 46.2808C80.7879 45.282 81.219 44.1508 81.41 42.9322C81.9347 39.5823 80.5621 36.2558 77.8278 34.2506L71.6238 29.7009C70.6039 28.9531 69.8351 27.9302 69.4006 26.7422C68.4025 24.014 66.8957 21.5493 64.9218 19.4169C64.4268 18.882 63.5918 18.8498 63.0567 19.3448C62.5218 19.8398 62.4894 20.675 62.9846 21.2099C64.7196 23.0845 66.0443 25.251 66.9217 27.6493C67.5358 29.3277 68.6221 30.7731 70.0629 31.8296L76.2667 36.3792C78.202 37.7985 79.1736 40.153 78.8023 42.5238C78.3277 45.5542 75.7582 47.8254 72.6925 47.9243L70.6278 47.9908C67.9854 48.0762 65.9155 50.214 65.9155 52.8576V65.2751C65.9155 66.7712 64.6983 67.9882 63.2024 67.9882C61.7065 67.9882 60.4892 66.771 60.4892 65.2751V54.9617C60.4892 54.0855 60.197 53.2191 59.6665 52.5217C59.0075 51.6557 58.0502 51.1025 56.971 50.9638C55.8935 50.825 54.8298 51.1178 53.9753 51.7874C53.919 51.8315 53.863 51.8759 53.8076 51.9206C51.2956 53.9425 48.1363 55.056 44.9115 55.056C41.6867 55.056 38.5275 53.9425 36.0153 51.9206C33.1884 49.6449 29.634 48.3275 26.0067 48.2104L17.1305 47.9241C14.0649 47.8252 11.4953 45.554 11.0207 42.5236C10.652 40.1701 11.6119 37.8247 13.5256 36.4034C14.1107 35.9688 14.2328 35.1421 13.7982 34.557C13.3635 33.9719 12.5368 33.8499 11.9517 34.2844C9.24814 36.2928 7.89212 39.6063 8.41299 42.9322C8.60884 44.1829 9.05879 45.3409 9.70355 46.3587C7.20513 47.8638 5.61719 50.5881 5.61719 53.5893C5.61719 57.1247 7.80202 60.1577 10.8915 61.4138L18.3438 84.3749C19.4359 87.7395 22.546 90 26.0833 90H63.74C67.2773 90 70.3874 87.7395 71.4795 84.3749L74.3575 75.5073C74.5825 74.814 74.2028 74.0697 73.5097 73.8446C72.816 73.6197 72.072 73.9993 71.8469 74.6924L68.9689 83.56C68.2313 85.833 66.1298 87.3604 63.7402 87.3604H60.1546L63.273 70.6259C66.1921 70.5881 68.5554 68.203 68.5554 65.2751V62.0334H75.9382C75.9442 62.0334 75.95 62.033 75.9558 62.0328L73.5865 69.3327C73.3615 70.0261 73.7412 70.7704 74.4344 70.9955C74.5699 71.0395 74.7071 71.0602 74.8421 71.0602C75.3987 71.0602 75.916 70.7055 76.0971 70.1475L78.9059 61.4931C82.1017 60.2895 84.3819 57.2012 84.3819 53.5893ZM8.25655 53.5893C8.25655 51.3684 9.523 49.3701 11.472 48.3986C12.9889 49.6949 14.9334 50.4944 17.0455 50.5626L25.9218 50.8489C28.9799 50.9476 31.9769 52.0585 34.3604 53.9771C37.3397 56.3752 41.0868 57.6959 44.9115 57.6959C48.7362 57.6959 52.4833 56.3752 55.4628 53.977C55.5096 53.9393 55.5566 53.902 55.6035 53.8652C55.8971 53.6349 56.2636 53.5346 56.6344 53.5823C57.0074 53.6301 57.3381 53.8214 57.5656 54.1205C57.7486 54.3609 57.8493 54.6599 57.8493 54.9622V59.3943H14.0611C10.8604 59.3938 8.25655 56.79 8.25655 53.5893ZM41.0377 87.3604L39.2732 62.0334H50.5497L48.7853 87.3604H41.0377ZM32.3536 87.3604L27.6343 62.0334H36.6274L38.3918 87.3604H32.3536ZM20.8542 83.5602L13.8659 62.0284C13.931 62.0298 13.9956 62.0334 14.0609 62.0334H24.9492L29.6685 87.3604H26.0828C23.6933 87.3604 21.5919 85.8332 20.8542 83.5602ZM51.4313 87.3604L53.1958 62.0334H57.8494V65.2751C57.8494 67.3242 59.0075 69.1071 60.703 70.0065L57.4692 87.3604H51.4313ZM75.9377 59.3938H68.5549V52.8576C68.5549 51.6469 69.5028 50.668 70.7126 50.629L72.7773 50.5625C74.9195 50.4933 76.8897 49.6726 78.4158 48.3433C80.4312 49.2911 81.7422 51.3124 81.7422 53.5891C81.7424 56.79 79.1384 59.3938 75.9377 59.3938Z" fill="url(#paint1_linear_4856_88)"/>
<path d="M33.1973 29.667C32.6396 29.1974 31.8071 29.269 31.3377 29.8264C30.8682 30.3839 30.9394 31.2166 31.4971 31.6861L33.1617 33.0879C33.4093 33.2964 33.7111 33.3981 34.0112 33.3981C34.387 33.3981 34.7603 33.2383 35.0214 32.9284C35.4909 32.371 35.4196 31.5383 34.862 31.0688L33.1973 29.667Z" fill="url(#paint2_linear_4856_88)"/>
<path d="M43.7654 28.9716L42.767 30.7239C42.4062 31.3572 42.6271 32.1631 43.2604 32.5239C43.4666 32.6412 43.691 32.6972 43.9125 32.6972C44.3713 32.6972 44.817 32.4577 45.0604 32.0305L46.0588 30.2782C46.4196 29.6448 46.1987 28.8389 45.5654 28.4782C44.9321 28.1174 44.1265 28.3383 43.7654 28.9716Z" fill="url(#paint3_linear_4856_88)"/>
<path d="M56.6166 27.2649C57.3455 27.2649 57.9364 26.674 57.9364 25.9451V24.4555C57.9364 23.7266 57.3455 23.1357 56.6166 23.1357C55.8878 23.1357 55.2969 23.7266 55.2969 24.4555V25.9451C55.2969 26.674 55.8878 27.2649 56.6166 27.2649Z" fill="url(#paint4_linear_4856_88)"/>
<path d="M55.1435 32.2467L53.5665 30.4944C53.0789 29.9524 52.2444 29.9086 51.7026 30.3962C51.1608 30.8838 51.1168 31.7183 51.6044 32.2601L53.1814 34.0124C53.4421 34.302 53.8017 34.4493 54.1628 34.4493C54.4775 34.4493 54.7931 34.3376 55.0453 34.1106C55.5873 33.623 55.6311 32.7885 55.1435 32.2467Z" fill="url(#paint5_linear_4856_88)"/>
<path d="M52.9684 40.2378H50.4838C49.755 40.2378 49.1641 40.8287 49.1641 41.5576C49.1641 42.2864 49.755 42.8773 50.4838 42.8773H52.9684C53.6972 42.8773 54.2881 42.2864 54.2881 41.5576C54.2881 40.8287 53.6972 40.2378 52.9684 40.2378Z" fill="url(#paint6_linear_4856_88)"/>
<path d="M38.7455 38.3895L37.7713 39.7038C37.3374 40.2894 37.46 41.1159 38.0456 41.55C38.282 41.7251 38.5573 41.8096 38.8305 41.8096C39.2341 41.8096 39.6329 41.625 39.8917 41.2757L40.8659 39.9614C41.2998 39.3758 41.1772 38.5492 40.5916 38.1151C40.0059 37.681 39.1796 37.8038 38.7455 38.3895Z" fill="url(#paint7_linear_4856_88)"/>
<path d="M26.7241 37.6046C26.0982 37.2305 25.288 37.4341 24.9139 38.0597C24.5398 38.6852 24.7436 39.4956 25.3689 39.8699L26.9187 40.7969C27.1311 40.9237 27.3644 40.9841 27.595 40.9841C28.0439 40.9841 28.4817 40.755 28.7289 40.3416C29.103 39.7161 28.8992 38.9057 28.2739 38.5314L26.7241 37.6046Z" fill="url(#paint8_linear_4856_88)"/>
<path d="M61.933 38.9272C62.1359 39.04 62.3559 39.0935 62.5727 39.0935C63.0365 39.0935 63.4863 38.8485 63.7276 38.4144L64.6037 36.8374C64.9578 36.2002 64.7281 35.3967 64.0909 35.0429C63.4539 34.6888 62.6503 34.9183 62.2964 35.5556L61.4203 37.1327C61.0662 37.7697 61.2958 38.5732 61.933 38.9272Z" fill="url(#paint9_linear_4856_88)"/>
</g>
<defs>
<linearGradient id="paint0_linear_4856_88" x1="16.5903" y1="2.89821" x2="64.6986" y2="16.3574" gradientUnits="userSpaceOnUse">
<stop stop-color="#FE792E"/>
<stop offset="1" stop-color="#825AD3"/>
</linearGradient>
<linearGradient id="paint1_linear_4856_88" x1="6.72033" y1="25.1681" x2="93.0721" y2="45.0467" gradientUnits="userSpaceOnUse">
<stop stop-color="#FE792E"/>
<stop offset="1" stop-color="#825AD3"/>
</linearGradient>
<linearGradient id="paint2_linear_4856_88" x1="31.0876" y1="29.7081" x2="35.8252" y2="30.7553" gradientUnits="userSpaceOnUse">
<stop stop-color="#FE792E"/>
<stop offset="1" stop-color="#825AD3"/>
</linearGradient>
<linearGradient id="paint3_linear_4856_88" x1="42.6447" y1="28.6869" x2="46.7243" y2="29.3882" gradientUnits="userSpaceOnUse">
<stop stop-color="#FE792E"/>
<stop offset="1" stop-color="#825AD3"/>
</linearGradient>
<linearGradient id="paint4_linear_4856_88" x1="55.3338" y1="23.4948" x2="58.3283" y2="23.892" gradientUnits="userSpaceOnUse">
<stop stop-color="#FE792E"/>
<stop offset="1" stop-color="#825AD3"/>
</linearGradient>
<linearGradient id="paint5_linear_4856_88" x1="51.3247" y1="30.4393" x2="56.0067" y2="31.3722" gradientUnits="userSpaceOnUse">
<stop stop-color="#FE792E"/>
<stop offset="1" stop-color="#825AD3"/>
</linearGradient>
<linearGradient id="paint6_linear_4856_88" x1="49.2358" y1="40.4673" x2="54.3252" y2="42.5177" gradientUnits="userSpaceOnUse">
<stop stop-color="#FE792E"/>
<stop offset="1" stop-color="#825AD3"/>
</linearGradient>
<linearGradient id="paint7_linear_4856_88" x1="37.5623" y1="38.1993" x2="41.5893" y2="38.9631" gradientUnits="userSpaceOnUse">
<stop stop-color="#FE792E"/>
<stop offset="1" stop-color="#825AD3"/>
</linearGradient>
<linearGradient id="paint8_linear_4856_88" x1="24.7852" y1="37.7274" x2="29.3506" y2="38.8403" gradientUnits="userSpaceOnUse">
<stop stop-color="#FE792E"/>
<stop offset="1" stop-color="#825AD3"/>
</linearGradient>
<linearGradient id="paint9_linear_4856_88" x1="61.3032" y1="35.2432" x2="65.2443" y2="35.9251" gradientUnits="userSpaceOnUse">
<stop stop-color="#FE792E"/>
<stop offset="1" stop-color="#825AD3"/>
</linearGradient>
<clipPath id="clip0_4856_88">
<rect width="90" height="90" fill="white"/>
</clipPath>
</defs>
</svg>
